<svg width="20" height="21" viewBox="0 0 20 21" fill="none" xmlns="http://www.w3.org/2000/svg">
<path d="M9.56172 12.9701C8.88886 14.6346 8.28683 15.9626 7.75562 16.9542C7.22441 17.9103 6.81715 18.5832 6.53384 18.9728C6.03805 19.681 5.43602 20.0352 4.72774 20.0352C4.19653 20.0352 3.71845 19.8404 3.29348 19.4508C2.86852 19.0259 2.65603 18.5655 2.65603 18.0697C2.65603 17.6093 2.85081 17.0958 3.24036 16.5292C3.52367 16.1397 4.01947 15.5553 4.72774 14.7762C5.43602 13.9971 6.48072 13.0232 7.86186 11.8546C6.05576 11.6775 4.67462 11.4827 3.71845 11.2703C2.79769 11.0578 2.10712 10.8807 1.64674 10.739C0.548914 10.4203 0 9.76517 0 8.77358C0 8.17155 0.177069 7.67576 0.531207 7.2862C0.920759 6.89665 1.39884 6.70188 1.96547 6.70188C2.39043 6.70188 2.8154 6.79041 3.24036 6.96748C3.73616 7.14455 4.3736 7.44557 5.15271 7.87053C5.96722 8.26009 7.08276 8.91524 8.49931 9.836C8.10976 8.06531 7.84416 6.64876 7.7025 5.58634C7.56084 4.52393 7.49002 3.74483 7.49002 3.24903C7.49002 1.72624 8.18059 0.964844 9.56172 0.964844C10.9429 0.964844 11.6334 1.72624 11.6334 3.24903C11.6334 3.74483 11.5626 4.52393 11.4209 5.58634C11.2793 6.64876 11.0137 8.06531 10.6241 9.836C12.0407 8.91524 13.1385 8.26009 13.9176 7.87053C14.7321 7.44557 15.3873 7.14455 15.8831 6.96748C16.3435 6.79041 16.7684 6.70188 17.158 6.70188C17.76 6.70188 18.2381 6.89665 18.5922 7.2862C18.9464 7.67576 19.1234 8.17155 19.1234 8.77358C19.1234 9.76517 18.5745 10.4203 17.4767 10.739C17.0163 10.8807 16.3081 11.0578 15.3519 11.2703C14.4311 11.4827 13.0677 11.6775 11.2616 11.8546C12.6427 13.0232 13.6874 13.9971 14.3957 14.7762C15.1394 15.5553 15.6352 16.1397 15.8831 16.5292C16.2726 17.0958 16.4674 17.6093 16.4674 18.0697C16.4674 18.5655 16.2549 19.0259 15.83 19.4508C15.405 19.8404 14.9269 20.0352 14.3957 20.0352C13.6874 20.0352 13.0854 19.681 12.5896 18.9728C12.3063 18.5832 11.899 17.9103 11.3678 16.9542C10.872 15.9626 10.27 14.6346 9.56172 12.9701Z" fill="black" style="fill:black;fill-opacity:1;"/>
</svg>
